<svg xmlns="http://www.w3.org/2000/svg" viewBox="0 0 389.78 126.14"><defs><style>.cls-1{fill:#404040;}.cls-2{fill:#5b4a42;}</style></defs><title>Recurso 4</title><g id="Capa_2" data-name="Capa 2"><g id="Capa_1-2" data-name="Capa 1"><path class="cls-1" d="M42,126.77a17.17,17.17,0,0,1-7.11,6.3,23.92,23.92,0,0,1-10.7,2.25,20.93,20.93,0,0,1-11.37-3,19.21,19.21,0,0,1-7.36-8.58A31.45,31.45,0,0,1,2.88,110.6v-3.13A30.71,30.71,0,0,1,5.51,94.34,20,20,0,0,1,13,85.71a20.71,20.71,0,0,1,11.23-3A23.14,23.14,0,0,1,35,85a17.12,17.12,0,0,1,7,6.42,21.91,21.91,0,0,1,3,9.47h-11c-.21-3.09-1.06-5.4-2.54-6.91s-3.88-2.27-7.18-2.27-6,1.27-7.65,3.8S14,102,14,107.4v3.2a31.9,31.9,0,0,0,1,8.88,9.63,9.63,0,0,0,3.23,5.12,9.42,9.42,0,0,0,5.86,1.68q4.73,0,7.07-2.16c1.55-1.44,2.44-3.66,2.65-6.66h11A19.64,19.64,0,0,1,42,126.77Z" transform="translate(-2.88 -9.67)"/><path class="cls-2" d="M67.27,106.63a7.72,7.72,0,0,1-3.79,2.5,7.68,7.68,0,0,1,3.79,2.52A7,7,0,0,1,68.52,116v6q0,3.14,1.56,4.5t5,1.36v8a36.27,36.27,0,0,1-9.87-1.07,9.26,9.26,0,0,1-5.3-3.6,12.5,12.5,0,0,1-1.68-7v-5q0-3.24-1.47-4.64c-1-.92-2.66-1.39-5-1.39v-7.94q3.52,0,5-1.4c1-.93,1.47-2.47,1.47-4.64v-5A12.37,12.37,0,0,1,60,87.18a9.21,9.21,0,0,1,5.3-3.6,35.88,35.88,0,0,1,9.87-1.07v7.94q-3.48,0-5,1.37c-1,.9-1.56,2.38-1.56,4.43v6.09A6.86,6.86,0,0,1,67.27,106.63Z" transform="translate(-2.88 -9.67)"/><path class="cls-2" d="M98.36,103.79q1.48,1.39,5,1.4v7.94c-2.35,0-4,.47-5,1.39s-1.47,2.48-1.47,4.64v5a12.5,12.5,0,0,1-1.68,7,9.26,9.26,0,0,1-5.3,3.6A36.27,36.27,0,0,1,80,135.81v-8q3.46,0,5-1.36t1.56-4.5v-6a7,7,0,0,1,1.24-4.32,7.71,7.71,0,0,1,3.8-2.52,7.76,7.76,0,0,1-3.8-2.5,6.85,6.85,0,0,1-1.24-4.29V96.25c0-2-.52-3.53-1.56-4.43s-2.73-1.37-5-1.37V82.51a35.88,35.88,0,0,1,9.87,1.07,9.21,9.21,0,0,1,5.3,3.6,12.37,12.37,0,0,1,1.68,6.93v5C96.89,101.32,97.38,102.86,98.36,103.79Z" transform="translate(-2.88 -9.67)"/><path class="cls-1" d="M154.25,134.09v.52H142.46l-9.41-18.49h-8v18.49h-11V83.43h19.3a26.51,26.51,0,0,1,10.19,1.77,14.11,14.11,0,0,1,6.55,5.24,15.05,15.05,0,0,1,2.28,8.46,15.61,15.61,0,0,1-2.35,8.91,15.85,15.85,0,0,1-6.74,5.46Zm-29.16-26.9h8.28c2.62,0,4.61-.65,6-2a7.15,7.15,0,0,0,2-5.41,7.28,7.28,0,0,0-2-5.48c-1.35-1.32-3.34-2-6-2h-8.28Z" transform="translate(-2.88 -9.67)"/><path class="cls-1" d="M198.33,112.48a12.28,12.28,0,0,1,2.07,7q0,7.45-4.77,11.28t-13.86,3.83H162V83.43h18q9.22,0,14.23,3.51t5,10.55a12,12,0,0,1-1.81,6.52,11,11,0,0,1-5.46,4.31A10.34,10.34,0,0,1,198.33,112.48ZM173,92.36V104.8h7q4.17,0,6.19-1.53a5.33,5.33,0,0,0,2-4.55q0-3.37-1.95-4.87c-1.3-1-3.39-1.49-6.26-1.49ZM187.49,124a5.91,5.91,0,0,0,1.93-4.59q0-6.89-7.2-6.89H173v13.22h8.74A8.31,8.31,0,0,0,187.49,124Z" transform="translate(-2.88 -9.67)"/><path class="cls-1" d="M237.6,124.45H219.5l-3.34,10.16H204.44l18.95-51.18h10.25l19.05,51.18H240.94Zm-2.94-8.93-6.15-18.66-6.1,18.66Z" transform="translate(-2.88 -9.67)"/><path class="cls-1" d="M292.11,125.72v8.89H259V83.43h11v42.29Z" transform="translate(-2.88 -9.67)"/><path class="cls-1" d="M329.45,124.45h-18.1L308,134.61H296.29l18.95-51.18h10.25l19.05,51.18H332.79Zm-2.94-8.93-6.15-18.66-6.1,18.66Z" transform="translate(-2.88 -9.67)"/><polygon class="cls-2" points="370.83 93.52 358.94 73.76 347.92 73.76 347.92 124.94 358.94 124.94 358.94 91.93 364.29 100.82 370.83 93.52"/><polygon class="cls-2" points="378.8 73.76 378.8 106.77 373.77 98.41 367.22 105.7 378.8 124.94 389.78 124.94 389.78 73.76 378.8 73.76"/><path class="cls-1" d="M42,53.75a17.13,17.13,0,0,1-7.12,6.3A24,24,0,0,1,24.19,62.3a21.09,21.09,0,0,1-11.39-3,19.23,19.23,0,0,1-7.37-8.58A31.29,31.29,0,0,1,2.88,37.58V34.45A30.56,30.56,0,0,1,5.52,21.32,19.91,19.91,0,0,1,13,12.69a20.76,20.76,0,0,1,11.25-3A23.27,23.27,0,0,1,35,12a17.1,17.1,0,0,1,7,6.41,21.69,21.69,0,0,1,3,9.48H34c-.21-3.09-1.06-5.4-2.55-6.91s-3.88-2.27-7.19-2.27-6,1.27-7.66,3.8-2.5,6.49-2.5,11.88v3.2a31.9,31.9,0,0,0,1,8.88,9.61,9.61,0,0,0,3.24,5.11,9.39,9.39,0,0,0,5.87,1.69q4.74,0,7.08-2.16c1.56-1.44,2.44-3.66,2.66-6.66h11A19.54,19.54,0,0,1,42,53.75Z" transform="translate(-2.88 -9.67)"/><path class="cls-1" d="M102.2,61.07v.52H90.38L81,43.1H73V61.59h-11V10.41H81.28a26.61,26.61,0,0,1,10.21,1.77,14.14,14.14,0,0,1,6.56,5.24,15.05,15.05,0,0,1,2.28,8.46A15.53,15.53,0,0,1,98,34.79a15.82,15.82,0,0,1-6.75,5.46ZM73,34.17h8.3c2.62,0,4.62-.65,6-2a7.15,7.15,0,0,0,2-5.41,7.32,7.32,0,0,0-2-5.49c-1.35-1.31-3.34-2-6-2H73Z" transform="translate(-2.88 -9.67)"/><path class="cls-1" d="M119.24,61.59V10.41h11V61.59Z" transform="translate(-2.88 -9.67)"/><path class="cls-1" d="M157.93,36.51a17.91,17.91,0,0,1-6-5.15A12.15,12.15,0,0,1,149.69,24a12.13,12.13,0,0,1,2.44-7.5,15.61,15.61,0,0,1,6.77-5,25.87,25.87,0,0,1,9.88-1.78,23.28,23.28,0,0,1,9.87,2,15.49,15.49,0,0,1,6.65,5.59,14.72,14.72,0,0,1,2.35,8.24h-11a6.68,6.68,0,0,0-2.06-5.15q-2.06-1.9-6-1.91a11,11,0,0,0-4.3.74,5.79,5.79,0,0,0-2.67,2,4.86,4.86,0,0,0-.9,2.86,4.74,4.74,0,0,0,2.43,4,29.93,29.93,0,0,0,7.52,3.22q8.61,2.64,12.81,6.59A13.32,13.32,0,0,1,187.65,48a13,13,0,0,1-2.28,7.69,14.25,14.25,0,0,1-6.49,4.9A26.43,26.43,0,0,1,169,62.3a27.56,27.56,0,0,1-10.18-1.87,17.77,17.77,0,0,1-7.75-5.71,14.94,14.94,0,0,1-3-9.44h11.08q0,4.39,2.55,6.35T169,53.58a9.1,9.1,0,0,0,5.68-1.51,4.83,4.83,0,0,0,1.92-4,5.6,5.6,0,0,0-.78-3.05A7.33,7.33,0,0,0,173,42.68a38,38,0,0,0-6.11-2.43A51.79,51.79,0,0,1,157.93,36.51Z" transform="translate(-2.88 -9.67)"/><path class="cls-1" d="M243.94,19.34H228.33V61.59h-11V19.34H202V10.41h42Z" transform="translate(-2.88 -9.67)"/><path class="cls-1" d="M260.81,61.59V10.41h11V61.59Z" transform="translate(-2.88 -9.67)"/><path class="cls-1" d="M320.68,51.43H302.54L299.2,61.59H287.45l19-51.18H316.7l19.09,51.18H324Zm-3-8.93-6.15-18.66L305.45,42.5Z" transform="translate(-2.88 -9.67)"/><polygon class="cls-2" points="370.83 20.5 358.94 0.73 347.92 0.73 347.92 51.92 358.94 51.92 358.94 18.91 364.29 27.79 370.83 20.5"/><polygon class="cls-2" points="378.8 0.73 378.8 33.74 373.77 25.38 367.22 32.67 378.8 51.92 389.78 51.92 389.78 0.73 378.8 0.73"/></g></g></svg>