<svg xmlns="http://www.w3.org/2000/svg" viewBox="0 0 389.78 126.14"><defs><style>.cls-1{fill:#fff;}</style></defs><title>Recurso 3</title><g id="Capa_2" data-name="Capa 2"><g id="Capa_1-2" data-name="Capa 1"><path class="cls-1" d="M39.07,117.11A17.12,17.12,0,0,1,32,123.4a23.92,23.92,0,0,1-10.7,2.25,20.93,20.93,0,0,1-11.37-3,19.24,19.24,0,0,1-7.36-8.57A31.51,31.51,0,0,1,0,100.94V97.81A30.64,30.64,0,0,1,2.63,84.68,20,20,0,0,1,10.07,76,20.71,20.71,0,0,1,21.3,73a23.14,23.14,0,0,1,10.77,2.32,17.12,17.12,0,0,1,7,6.42,21.81,21.81,0,0,1,3,9.47H31q-.32-4.64-2.54-6.91T21.3,82.06q-5.16,0-7.65,3.79T11.16,97.74v3.2a31.82,31.82,0,0,0,1,8.87,9.57,9.57,0,0,0,3.23,5.12,9.42,9.42,0,0,0,5.86,1.69c3.15,0,5.51-.73,7.07-2.17s2.44-3.66,2.65-6.66H42A19.57,19.57,0,0,1,39.07,117.11Z"/><path class="cls-1" d="M64.39,97a7.78,7.78,0,0,1-3.79,2.49A7.68,7.68,0,0,1,64.39,102a7,7,0,0,1,1.25,4.33v6q0,3.12,1.56,4.49t5,1.37v7.94a36.27,36.27,0,0,1-9.87-1.07,9.26,9.26,0,0,1-5.3-3.6,12.5,12.5,0,0,1-1.68-7v-5q0-3.25-1.47-4.64t-5-1.4V95.52c2.35,0,4-.47,5-1.39s1.47-2.48,1.47-4.64v-5a12.37,12.37,0,0,1,1.68-6.93,9.26,9.26,0,0,1,5.3-3.6,36.27,36.27,0,0,1,9.87-1.07v8q-3.48,0-5,1.36c-1,.91-1.56,2.39-1.56,4.43v6.09A6.91,6.91,0,0,1,64.39,97Z"/><path class="cls-1" d="M95.48,94.13c1,.92,2.66,1.39,5,1.39v7.94q-3.52,0-5,1.4T94,109.5v5a12.5,12.5,0,0,1-1.68,7,9.26,9.26,0,0,1-5.3,3.6,36.27,36.27,0,0,1-9.87,1.07V118.2q3.47,0,5-1.37t1.56-4.49v-6A7,7,0,0,1,85,102a7.71,7.71,0,0,1,3.8-2.52A7.81,7.81,0,0,1,85,97a6.9,6.9,0,0,1-1.24-4.3V86.58c0-2-.52-3.52-1.56-4.43s-2.73-1.36-5-1.36v-8A36.27,36.27,0,0,1,87,73.91a9.26,9.26,0,0,1,5.3,3.6A12.37,12.37,0,0,1,94,84.44v5Q94,92.73,95.48,94.13Z"/><path class="cls-1" d="M151.37,124.42V125H139.58l-9.41-18.49h-8V125h-11V73.76h19.3a26.31,26.31,0,0,1,10.19,1.78,14,14,0,0,1,6.55,5.23,15.05,15.05,0,0,1,2.28,8.46,15.61,15.61,0,0,1-2.35,8.91,15.94,15.94,0,0,1-6.74,5.47ZM122.21,97.53h8.28a8.24,8.24,0,0,0,6-2,7.19,7.19,0,0,0,2-5.42,7.28,7.28,0,0,0-2-5.48q-2-2-6-2h-8.28Z"/><path class="cls-1" d="M195.45,102.82a12.27,12.27,0,0,1,2.07,7q0,7.45-4.77,11.29T178.89,125H159.13V73.76h18q9.22,0,14.23,3.52t5,10.54a12,12,0,0,1-1.81,6.52,11,11,0,0,1-5.46,4.31A10.39,10.39,0,0,1,195.45,102.82Zm-25.3-20.13V95.13h7c2.78,0,4.84-.5,6.19-1.52a5.38,5.38,0,0,0,2-4.56q0-3.37-1.95-4.87t-6.26-1.49Zm14.45,31.62a5.87,5.87,0,0,0,1.93-4.59q0-6.89-7.19-6.89h-9.19v13.22h8.74C181.41,116.05,183.32,115.47,184.6,114.31Z"/><path class="cls-1" d="M234.72,114.79H216.61L213.28,125H201.56l18.95-51.19h10.25L249.81,125H238.06Zm-2.95-8.93-6.14-18.67-6.1,18.67Z"/><path class="cls-1" d="M289.23,116.05V125H256.1V73.76h11v42.29Z"/><path class="cls-1" d="M326.57,114.79H308.46L305.13,125H293.41l18.95-51.19h10.25L341.66,125H329.91Zm-2.95-8.93-6.14-18.67-6.1,18.67Z"/><polygon class="cls-1" points="370.83 93.53 358.94 73.76 347.92 73.76 347.92 124.94 358.94 124.94 358.94 91.93 364.29 100.82 370.83 93.53"/><polygon class="cls-1" points="378.8 73.76 378.8 106.77 373.77 98.41 367.22 105.7 378.8 124.94 389.78 124.94 389.78 73.76 378.8 73.76"/><path class="cls-1" d="M39.15,44.09A17.18,17.18,0,0,1,32,50.38a24,24,0,0,1-10.72,2.25,21,21,0,0,1-11.39-3A19.23,19.23,0,0,1,2.55,41,31.29,31.29,0,0,1,0,27.91V24.79A30.57,30.57,0,0,1,2.64,11.65,20,20,0,0,1,10.09,3,20.76,20.76,0,0,1,21.34,0a23.3,23.3,0,0,1,10.8,2.32,17.12,17.12,0,0,1,7,6.42,21.69,21.69,0,0,1,3,9.47h-11c-.21-3.09-1.06-5.4-2.55-6.91S24.65,9,21.34,9s-6,1.26-7.66,3.79-2.5,6.49-2.5,11.88v3.2a31.85,31.85,0,0,0,1,8.88,9.64,9.64,0,0,0,3.24,5.12,9.45,9.45,0,0,0,5.87,1.68q4.74,0,7.08-2.16C30,40,30.83,37.77,31.05,34.77h11A19.69,19.69,0,0,1,39.15,44.09Z"/><path class="cls-1" d="M99.32,51.4v.53H87.5l-9.42-18.5h-8v18.5h-11V.74H78.4A26.61,26.61,0,0,1,88.61,2.51a14.14,14.14,0,0,1,6.56,5.24,15.05,15.05,0,0,1,2.28,8.46,15.53,15.53,0,0,1-2.35,8.91,15.91,15.91,0,0,1-6.75,5.47ZM70.1,24.5h8.3c2.62,0,4.62-.65,6-2a7.19,7.19,0,0,0,2-5.42,7.28,7.28,0,0,0-2-5.48c-1.35-1.32-3.34-2-6-2H70.1Z"/><path class="cls-1" d="M116.36,51.93V.74h11V51.93Z"/><path class="cls-1" d="M155.05,26.84a17.91,17.91,0,0,1-6-5.15,12.15,12.15,0,0,1-2.25-7.35,12.15,12.15,0,0,1,2.44-7.5,15.61,15.61,0,0,1,6.77-5A25.87,25.87,0,0,1,165.9,0a23.28,23.28,0,0,1,9.87,2,15.55,15.55,0,0,1,6.65,5.59,14.73,14.73,0,0,1,2.35,8.25h-11a6.65,6.65,0,0,0-2.06-5.15q-2.06-1.92-6-1.92a11.23,11.23,0,0,0-4.3.74,5.79,5.79,0,0,0-2.67,2,4.88,4.88,0,0,0-.9,2.86,4.74,4.74,0,0,0,2.43,4,29.56,29.56,0,0,0,7.52,3.22q8.61,2.64,12.81,6.59a13.33,13.33,0,0,1,4.2,10.15A13,13,0,0,1,182.49,46a14.18,14.18,0,0,1-6.49,4.9,26.23,26.23,0,0,1-9.86,1.69A27.76,27.76,0,0,1,156,50.77a17.87,17.87,0,0,1-7.75-5.72,14.93,14.93,0,0,1-3-9.44H156.3q0,4.39,2.55,6.35t7.29,1.95a9,9,0,0,0,5.68-1.51,4.81,4.81,0,0,0,1.92-4,5.61,5.61,0,0,0-.78-3.06A7.42,7.42,0,0,0,170.11,33,37.17,37.17,0,0,0,164,30.59,52.56,52.56,0,0,1,155.05,26.84Z"/><path class="cls-1" d="M241.06,9.67H225.45V51.93h-11V9.67H199.08V.74h42Z"/><path class="cls-1" d="M257.93,51.93V.74h11V51.93Z"/><path class="cls-1" d="M317.8,41.77H299.66l-3.34,10.16H284.57l19-51.19h10.26l19.09,51.19H321.14Zm-3-8.93-6.15-18.67-6.12,18.67Z"/><polygon class="cls-1" points="370.83 20.5 358.94 0.73 347.92 0.73 347.92 51.92 358.94 51.92 358.94 18.91 364.29 27.79 370.83 20.5"/><polygon class="cls-1" points="378.8 0.73 378.8 33.74 373.77 25.38 367.22 32.67 378.8 51.92 389.78 51.92 389.78 0.73 378.8 0.73"/></g></g></svg>